<svg width="24" height="24" viewBox="0 0 24 24" fill="none" xmlns="http://www.w3.org/2000/svg">
<circle cx="12" cy="12" r="12" fill="#C10707"/>
<path d="M8.20898 17H6.86133V10.5312H6.33398V10.3496L7.04297 7.83008H8.20898V17ZM13.8984 16.1621C13.8984 16.7207 13.623 17 13.0723 17H10.1777C9.63477 17 9.36328 16.7207 9.36328 16.1621V13.4961C9.36328 13.1562 9.47656 12.8965 9.70312 12.7168C9.97266 12.5605 10.2441 12.4043 10.5176 12.248C10.2559 12.0957 9.99414 11.9434 9.73242 11.791C9.49414 11.6035 9.375 11.3516 9.375 11.0352V8.67383C9.375 8.11133 9.65234 7.83008 10.207 7.83008H13.0605C13.6035 7.83008 13.875 8.11133 13.875 8.67383V11.0352C13.875 11.3555 13.7578 11.6074 13.5234 11.791C13.2617 11.9434 13 12.0957 12.7383 12.248C13.0078 12.4043 13.2793 12.5605 13.5527 12.7168C13.7832 12.8965 13.8984 13.1562 13.8984 13.4961V16.1621ZM12.5215 11.1816V8.98438H10.7461V11.1816L11.6309 11.709L12.5215 11.1816ZM12.5332 15.8457V13.3027L11.6309 12.7871L10.7227 13.3027V15.8457H12.5332ZM19.7168 13.5547H17.9297V15.3066H16.6816V13.5547H14.8945V12.418H16.6816V10.666H17.9297V12.418H19.7168V13.5547Z" fill="white"/>
</svg>
